<?xml version="1.0" encoding="UTF-8" standalone="no"?>
<!-- Created with Inkscape (http://www.inkscape.org/) -->

<svg
   xmlns:dc="http://purl.org/dc/elements/1.1/"
   xmlns:cc="http://creativecommons.org/ns#"
   xmlns:rdf="http://www.w3.org/1999/02/22-rdf-syntax-ns#"
   xmlns:svg="http://www.w3.org/2000/svg"
   xmlns="http://www.w3.org/2000/svg"
   xmlns:sodipodi="http://sodipodi.sourceforge.net/DTD/sodipodi-0.dtd"
   xmlns:inkscape="http://www.inkscape.org/namespaces/inkscape"
   id="svg3551"
   version="1.1"
   inkscape:version="0.91 r13725"
   xml:space="preserve"
   width="300"
   height="52.5"
   viewBox="0 0 300 52.5"
   sodipodi:docname="logo.svg"><metadata
     id="metadata3557"><rdf:RDF><cc:Work
         rdf:about=""><dc:format>image/svg+xml</dc:format><dc:type
           rdf:resource="http://purl.org/dc/dcmitype/StillImage" /><dc:title /></cc:Work></rdf:RDF></metadata><defs
     id="defs3555"><clipPath
       clipPathUnits="userSpaceOnUse"
       id="clipPath3565"><path
         d="M 0,42 240,42 240,0 0,0 0,42 Z"
         id="path3567"
         inkscape:connector-curvature="0" /></clipPath></defs><sodipodi:namedview
     pagecolor="#ffffff"
     bordercolor="#666666"
     borderopacity="1"
     objecttolerance="10"
     gridtolerance="10"
     guidetolerance="10"
     inkscape:pageopacity="0"
     inkscape:pageshadow="2"
     inkscape:window-width="1920"
     inkscape:window-height="1018"
     id="namedview3553"
     showgrid="false"
     inkscape:zoom="1.1172287"
     inkscape:cx="130.66689"
     inkscape:cy="-54.709593"
     inkscape:window-x="-8"
     inkscape:window-y="-8"
     inkscape:window-maximized="1"
     inkscape:current-layer="g3561" /><g
     id="g3559"
     inkscape:groupmode="layer"
     inkscape:label="20151214_ Reisebuddy_Logo_Final"
     transform="matrix(1.25,0,0,-1.25,0,52.5)"><g
       id="g3561"><path
         style="fill:#000000;fill-opacity:0"
         d="M 75.738538,1.4021023 C 73.665385,1.8355575 71.39677,2.7963797 69.640783,3.9846718 l -0.612732,0.4146428 0.555505,0.6026494 c 0.696788,0.7559253 1.207354,1.6416042 1.527912,2.6504622 0.136935,0.4309658 0.26633,0.804231 0.28754,0.8294774 0.02122,0.02525 0.418744,-0.2136009 0.883404,-0.5307746 1.127854,-0.7698681 2.427718,-1.3647416 3.812297,-1.7446779 1.6208,-0.4447538 4.63415,-0.4467235 6.268599,-0.00405 1.337316,0.3621626 3.150859,1.2220421 4.090412,1.939445 0.365846,0.279345 0.721013,0.5079002 0.789256,0.5079002 0.06824,0 0.205909,-0.3192723 0.305918,-0.7094939 0.204245,-0.7969195 1.030549,-2.1405168 1.70477,-2.7720139 0.245712,-0.2301411 0.446751,-0.4681675 0.446751,-0.5289461 0,-0.1727395 -1.527988,-1.1665684 -2.706893,-1.760609 -1.402653,-0.706786 -3.204329,-1.3107433 -4.684495,-1.57034 -1.737284,-0.3046865 -4.879102,-0.2598338 -6.570489,0.093802 z M 63.272577,4.8517591 c -1.508378,0.5010456 -2.473404,1.3134522 -3.157564,2.6581991 -0.349519,0.6869958 -0.398468,0.9416086 -0.397152,2.0657868 0.0013,1.006236 0.06741,1.426863 0.307737,1.954268 0.427634,0.938491 1.497614,2.03055 2.445662,2.496128 0.698718,0.343135 0.96549,0.39284 2.083529,0.388205 0.998244,-0.0041 1.431054,-0.0729 1.954268,-0.310476 0.941123,-0.42734 2.031376,-1.497137 2.491066,-2.44433 0.334771,-0.689798 0.389306,-0.980393 0.39106,-2.083795 0.0018,-1.1245176 -0.04696,-1.3785829 -0.3964,-2.0657868 C 68.146766,5.8422421 66.585869,4.8071798 64.77486,4.7116478 64.242776,4.6835788 63.597779,4.7437358 63.272577,4.8517591 Z m 29.897656,0.3784352 c -2.587336,0.5379256 -4.347236,3.1110647 -3.878649,5.6709537 0.305535,1.66914 1.528903,3.150644 3.087,3.738368 1.148119,0.433078 2.797157,0.348755 3.919652,-0.20043 2.881621,-1.409847 3.57501,-5.284323 1.376246,-7.6901187 -1.123478,-1.2292641 -2.944074,-1.843146 -4.504249,-1.518773 z M 78.785612,9.884837 c -0.165511,0.03396 -0.484607,0.253471 -0.709102,0.487795 -0.925995,0.966529 -0.241162,2.408646 1.143815,2.408646 1.128664,0 1.92105,-1.039802 1.479187,-1.94105 -0.337304,-0.687987 -1.176233,-1.106766 -1.9139,-0.955391 z m 47.326818,0.909775 c -1.18341,0.182943 -2.45543,0.820239 -3.27701,1.641817 -2.12648,2.126488 -2.1267,5.761712 -5.2e-4,8.034823 2.16486,2.314405 6.3875,2.4141 8.74757,0.206525 1.27107,-1.188936 1.68385,-2.191914 1.78887,-4.346602 0.0562,-1.151845 0.0197,-1.533578 -0.20196,-2.117006 -0.60719,-1.597993 -1.84814,-2.752354 -3.43546,-3.195755 -1.03711,-0.289706 -2.57891,-0.384985 -3.62154,-0.223802 z m 3.96635,0.966051 c 1.06288,0.475684 1.86678,1.209615 2.3042,2.103674 0.45871,0.937574 0.38271,1.047824 -0.7257,1.052794 -0.39179,0.0016 -1.1339,0.04302 -1.64915,0.09169 l -0.9368,0.0885 -0.19187,-0.46321 c -0.2452,-0.59198 -0.95562,-0.91177 -1.73354,-0.78034 -0.63212,0.106795 -0.9417,0.472248 -1.07005,1.263154 l -0.0834,0.513706 3.38495,0 3.38495,0 -0.0647,1.104129 c -0.12076,2.062033 -1.12829,3.580534 -2.93881,4.429275 -0.72986,0.342141 -0.96936,0.379024 -2.46128,0.379024 -1.60804,0 -1.67914,-0.01349 -2.62838,-0.498639 -1.16098,-0.593362 -2.01593,-1.55706 -2.48439,-2.800399 -0.42437,-1.126317 -0.36206,-3.07242 0.12928,-4.038071 0.63108,-1.240278 1.76273,-2.175319 3.217,-2.658074 0.92627,-0.307484 3.67222,-0.179005 4.54764,0.212778 z m -4.04899,6.082811 c 0,0.120052 0.09,0.433583 0.19991,0.696741 0.22707,0.543448 0.9453,0.870169 1.56885,0.713668 0.48814,-0.122519 0.93813,-0.707943 0.93813,-1.220498 l 0,-0.40819 -1.35344,0 c -1.1207,0 -1.35345,0.03754 -1.35345,0.218279 z m 1.99455,0.489049 c 0,0.0756 -0.13633,0.210417 -0.30296,0.299594 -0.34517,0.18473 -1.06048,-0.0479 -0.90764,-0.295188 0.11269,-0.182346 1.2106,-0.186342 1.2106,-0.0044 z m -0.0317,-3.762315 c 0.50603,0.354437 0.37316,0.490559 -0.47881,0.490559 -0.85726,0 -0.98282,-0.200628 -0.33305,-0.532154 0.43695,-0.222943 0.43396,-0.223097 0.81186,0.0416 z m 41.496,-3.76375 c -3.10932,0.51546 -5.19867,3.430701 -4.71108,6.57331 0.51003,3.287157 3.60307,5.359742 7.1741,4.807212 1.36082,-0.210555 2.3532,-0.686292 3.30055,-1.582265 2.32254,-2.196552 2.31155,-6.052366 -0.0235,-8.260782 -0.92642,-0.876166 -1.94459,-1.360833 -3.25736,-1.550549 -1.14251,-0.165112 -1.41656,-0.163667 -2.48269,0.01307 z m 3.90868,1.050506 c 1.02829,0.490045 2.02468,1.454751 2.49974,2.420229 0.30455,0.618962 0.35064,0.908437 0.35162,2.208255 7.1e-4,1.347461 -0.0381,1.57568 -0.39358,2.299651 -0.48075,0.978945 -1.41967,1.872063 -2.50095,2.378945 -0.73469,0.344411 -0.96465,0.379024 -2.51814,0.379024 -1.58502,0 -1.76898,-0.02915 -2.52408,-0.399894 -1.03247,-0.50694 -1.97612,-1.420934 -2.47659,-2.398783 -0.51518,-1.006591 -0.63668,-2.713794 -0.27495,-3.863786 0.46639,-1.482805 1.81547,-2.822172 3.3338,-3.309808 0.46072,-0.147964 1.11067,-0.197952 2.15552,-0.165784 1.29421,0.03985 1.61076,0.100785 2.34761,0.451951 z m -3.27227,2.099676 c -0.2951,0.25519 -0.39985,0.523904 -0.51375,1.317829 -0.25975,1.810558 0.10048,3.510476 0.8003,3.776547 0.89299,0.339513 1.44781,-0.160007 1.65486,-1.489914 0.22066,-1.417366 -0.0352,-3.175155 -0.52469,-3.604462 -0.20101,-0.176304 -0.5186,-0.320554 -0.70576,-0.320554 -0.18715,0 -0.50709,0.14425 -0.71096,0.320554 z m 1.0853,0.484861 c 0.13383,0.161208 0.21137,0.763577 0.24573,1.908743 0.0462,1.541377 0.0268,1.696547 -0.2461,1.969483 -0.35195,0.351953 -0.69774,0.264048 -0.88352,-0.224599 -0.22907,-0.602481 -0.1632,-3.21073 0.0902,-3.572532 0.26371,-0.376495 0.52619,-0.403315 0.79367,-0.08109 z M 106.44364,10.96135 c -0.0339,0.09985 -0.93409,3.387077 -2.00032,7.30495 -1.06624,3.917875 -1.97097,7.235601 -2.01053,7.372728 -0.0667,0.231207 0.12428,0.249318 2.62899,0.249318 l 2.7009,0 0.68862,-2.778128 c 0.37873,-1.527971 0.72593,-2.778128 0.77153,-2.778128 0.0456,0 0.32424,1.009742 0.61919,2.243873 0.29495,1.23413 0.59835,2.484287 0.67423,2.778128 l 0.13796,0.534255 2.20005,0 2.20005,0 0.0972,-0.391787 c 0.70169,-2.829401 1.4587,-5.476159 1.51785,-5.306938 0.0411,0.117537 0.37653,1.447832 0.74544,2.956213 l 0.67075,2.742512 2.33375,0 c 1.28357,0 2.33243,-0.01603 2.3308,-0.03562 -0.001,-0.01959 -0.92231,-3.401427 -2.04598,-7.515195 l -2.04304,-7.479577 -2.28817,-0.0391 -2.28817,-0.03909 -0.21411,0.751432 c -0.11776,0.413287 -0.41847,1.552818 -0.66825,2.532285 -0.24977,0.979469 -0.50335,1.834069 -0.5635,1.899109 -0.0601,0.06504 -0.39848,-1.056895 -0.75187,-2.493192 l -0.6425,-2.61145 -2.36956,-0.03907 c -1.8204,-0.03001 -2.38385,0.003 -2.43127,0.142468 z m 4.4366,0.929502 c 0.055,0.215483 0.46027,1.881958 0.90063,3.703279 l 0.80065,3.311493 0.83566,-3.240259 c 0.45961,-1.782143 0.89251,-3.450454 0.96199,-3.70736 l 0.12634,-0.467101 1.86308,0.0397 1.86307,0.0397 1.83159,6.696001 c 1.00738,3.682802 1.83234,6.744086 1.83327,6.802854 7.1e-4,0.05876 -0.75335,0.106852 -1.67617,0.106852 l -1.67786,0 -0.91832,-3.704173 c -0.50508,-2.037294 -0.95851,-3.70417 -1.00762,-3.70417 -0.0491,0 -0.46028,1.426461 -0.9137,3.169915 -0.45342,1.743454 -0.88757,3.410331 -0.96478,3.704171 l -0.1404,0.534257 -1.7516,0 -1.75161,0 -0.89497,-3.704173 c -0.49224,-2.037294 -0.93306,-3.70417 -0.9796,-3.70417 -0.0466,0 -0.4947,1.666876 -0.99589,3.70417 l -0.91125,3.704173 -2.03893,0 c -1.12141,0 -2.03893,-0.04823 -2.03893,-0.107179 0,-0.107656 3.51171,-13.058132 3.63135,-13.391678 0.0468,-0.13053 0.57794,-0.178084 1.98895,-0.178084 l 1.92508,0 0.1,0.391787 z m 29.39636,6.446682 0,7.550812 2.70689,0 2.70689,0 0.004,-2.101405 0.004,-2.101405 1.37239,2.101405 1.37238,2.101405 2.62929,0 2.62929,0 -0.25071,-0.391787 c -0.13789,-0.215483 -1.01616,-1.506781 -1.95169,-2.869551 l -1.70099,-2.477764 1.82846,-3.753457 1.82846,-3.753457 0.0376,4.699688 0.0376,4.699689 2.42003,0 c 2.07056,0 2.42005,-0.03128 2.42005,-0.216598 0,-0.178886 0.10542,-0.162315 0.60549,0.09519 0.95578,0.492162 2.54434,0.446767 3.62021,-0.10345 1.09805,-0.561565 1.56773,-1.245556 1.75329,-2.553267 0.0778,-0.548505 0.14277,-2.680183 0.14432,-4.737067 l 0.003,-3.739788 -2.56443,0 -2.56442,0 0,3.775406 c 0,2.076473 -0.0513,3.775404 -0.11398,3.775404 -0.40678,0 -0.4559,-0.425387 -0.4559,-3.948121 l 0,-3.606199 -5.2288,0.03737 -5.22881,0.03737 -1.00417,2.249075 -1.00417,2.249076 -0.31985,-0.396989 c -0.29533,-0.366547 -0.3199,-0.541749 -0.32055,-2.284693 l -5.3e-4,-1.887703 -2.70689,0 -2.7069,0 0,7.550811 z m 4.70111,-5.306938 -2e-4,1.531534 0.66201,0.969584 c 0.36409,0.533271 0.71249,0.917935 0.77422,0.854808 0.0617,-0.06312 0.59074,-1.1726 1.17559,-2.465499 l 1.06338,-2.350724 2.36696,-0.03907 2.36695,-0.03907 -2.16299,4.328757 -2.16299,4.328759 0.97417,1.409035 c 0.53578,0.774971 1.32057,1.905894 1.74398,2.513166 l 0.76981,1.104129 -1.93961,0 -1.93962,0 -1.84561,-2.809785 -1.84564,-2.809785 0,2.809785 0,2.809785 -1.99455,0 -1.99456,0 0,-6.838473 0,-6.838469 1.99456,0 1.99455,0 -2.1e-4,1.531531 z m 13.1337,1.873044 c 0.0415,3.13921 0.0666,3.428467 0.32259,3.711082 0.20418,0.225399 0.41067,0.295253 0.7803,0.26398 0.81091,-0.06861 0.86088,-0.304037 0.86327,-4.067254 l 0.002,-3.312383 1.85209,0 1.85208,0 0,3.896614 c 0,2.529705 -0.0568,4.066498 -0.16185,4.380897 -0.38322,1.146619 -1.49472,1.83147 -2.97245,1.83147 -1.12156,0 -1.9343,-0.332303 -2.46733,-1.008798 l -0.37887,-0.480861 -10e-4,0.605489 -0.001,0.60549 -1.78084,0 -1.78086,0 0,-4.91515 0,-4.915151 1.914,0 1.914,0 0.045,3.404575 z m 21.41028,-3.93883 c -0.24193,0.641351 -3.62806,10.880837 -3.62806,10.971053 0,0.06167 1.19791,0.09469 2.66203,0.07337 l 2.66202,-0.03876 0.36252,-1.389065 c 0.19939,-0.763985 0.39995,-1.389063 0.4457,-1.389063 0.0457,0 0.244,0.625078 0.44058,1.389063 l 0.35742,1.389065 1.99705,0.03939 1.99706,0.03939 0.40442,-1.525839 c 0.44994,-1.697526 0.41024,-1.708338 0.99803,0.271697 l 0.37008,1.246597 2.0724,0 c 1.59415,0 2.05891,-0.0411 2.01391,-0.178086 -0.0322,-0.09795 -0.85644,-2.629006 -1.83171,-5.624579 l -1.77321,-5.446493 -1.94487,-0.0029 -1.94486,-0.0029 -0.39942,1.637695 c -0.21969,0.900731 -0.44158,1.589922 -0.49309,1.531533 -0.0515,-0.05839 -0.20196,-0.554937 -0.33433,-1.103439 -0.13235,-0.548502 -0.30393,-1.237692 -0.38128,-1.531531 l -0.14062,-0.534258 -1.9223,0 c -1.40704,0 -1.94031,0.04774 -1.98947,0.178087 z m 3.91172,2.279489 c 0.24912,0.95988 0.56265,2.126147 0.69673,2.591706 l 0.24377,0.846472 0.62714,-2.591706 0.62715,-2.591706 1.50973,0 1.50974,0 1.60119,4.810589 c 0.88066,2.645825 1.6012,4.857642 1.6012,4.91515 0,0.05751 -0.63839,0.104562 -1.41865,0.104562 l -1.41865,0 -0.28295,-0.96166 c -0.15562,-0.528913 -0.46802,-1.591818 -0.69422,-2.362009 l -0.41127,-1.400347 -0.61524,2.362008 -0.61524,2.362008 -1.53582,0 -1.53583,0 -0.21392,-0.747958 c -0.11766,-0.411376 -0.39134,-1.438562 -0.60818,-2.282633 -0.21684,-0.844071 -0.43876,-1.453121 -0.49316,-1.353448 -0.0544,0.09968 -0.23901,0.694115 -0.41024,1.320973 -0.17124,0.626861 -0.43732,1.572493 -0.59128,2.101406 l -0.27993,0.96166 -1.98852,0 c -1.09369,0 -1.98852,-0.05539 -1.98852,-0.123102 0,-0.09023 2.6872,-8.081809 3.2042,-9.529115 0.0454,-0.126978 0.48895,-0.178084 1.54572,-0.178084 l 1.4821,0 0.45295,1.745234 z M 78.372903,14.66898 c -0.0677,0.189512 -0.497313,9.703379 -0.497313,11.013061 l 0,0.776177 1.366236,0 1.366238,0 -0.08392,-1.175361 c -0.04615,-0.64645 -0.148847,-2.874294 -0.228209,-4.950767 -0.07936,-2.076474 -0.181043,-4.240209 -0.225963,-4.8083 l -0.08167,-1.032894 -0.77589,0 c -0.491806,0 -0.799184,0.0652 -0.839507,0.178084 z m -12.322168,1.624025 c -0.7595,0.1972 -2.526015,0.180447 -3.441999,-0.03264 -0.374879,-0.08721 -0.380074,-0.07772 -0.485819,0.887657 -0.248149,2.265437 0.433982,5.866765 1.562444,8.248971 1.655999,3.495847 4.590642,6.512341 8.006081,8.229377 l 0.725553,0.364756 0.163948,-0.710261 c 0.236298,-1.023699 0.795695,-2.129895 1.456993,-2.881167 L 74.61309,29.746291 73.715529,29.296436 C 71.147903,28.009549 69.067863,25.84497 67.87874,23.222418 67.083742,21.469085 66.650661,18.7922 66.875234,17.019707 c 0.06702,-0.528913 0.08522,-0.954571 0.04046,-0.945906 -0.04476,0.0087 -0.433992,0.107306 -0.864958,0.219205 z m 25.539339,1.937679 c -0.01452,1.914681 -0.273444,3.184498 -1.003833,4.922876 -1.053981,2.508548 -3.263692,4.85447 -5.729713,6.082902 -0.430967,0.214683 -0.807222,0.411611 -0.836124,0.437617 -0.0289,0.026 0.181289,0.320471 0.467093,0.654367 0.639853,0.747525 1.342137,2.125812 1.460578,2.866491 0.04869,0.304465 0.174192,0.586448 0.278899,0.626628 0.226168,0.08679 1.750275,-0.734321 3.046067,-1.641061 1.252617,-0.876529 3.338998,-3.006222 4.173156,-4.259787 2.037552,-3.062009 2.95025,-6.048716 2.95025,-9.654375 l 0,-1.743487 -0.819193,0.192774 c -1.072377,0.252354 -2.063982,0.247041 -3.075698,-0.01647 -0.451254,-0.117535 -0.837962,-0.213702 -0.859354,-0.213702 -0.02139,0 -0.04485,0.785356 -0.05213,1.745236 z M 78.321762,30.025719 c -2.131723,0.436953 -3.728226,2.201614 -3.955035,4.371613 -0.07025,0.672126 -0.02113,1.089671 0.222561,1.891983 0.26967,0.887833 0.433993,1.152296 1.194014,1.921655 1.173953,1.188378 2.099566,1.551186 3.730671,1.462289 1.877009,-0.102299 3.196263,-0.930323 4.057902,-2.546921 1.174377,-2.203351 0.47553,-4.949841 -1.617422,-6.356523 -1.02876,-0.691435 -2.459683,-0.984535 -3.632691,-0.744096 z"
         id="path3347"
         inkscape:connector-curvature="0" /></g></g></svg>