<?xml version="1.0" encoding="UTF-8" standalone="no"?>
<!-- Created with Inkscape (http://www.inkscape.org/) -->

<svg
   xmlns:dc="http://purl.org/dc/elements/1.1/"
   xmlns:cc="http://creativecommons.org/ns#"
   xmlns:rdf="http://www.w3.org/1999/02/22-rdf-syntax-ns#"
   xmlns:svg="http://www.w3.org/2000/svg"
   xmlns="http://www.w3.org/2000/svg"
   xmlns:sodipodi="http://sodipodi.sourceforge.net/DTD/sodipodi-0.dtd"
   xmlns:inkscape="http://www.inkscape.org/namespaces/inkscape"
   id="svg3551"
   version="1.1"
   inkscape:version="0.91 r13725"
   xml:space="preserve"
   width="300"
   height="52.5"
   viewBox="0 0 300 52.5"
   sodipodi:docname="logo.svg"><metadata
     id="metadata3557"><rdf:RDF><cc:Work
         rdf:about=""><dc:format>image/svg+xml</dc:format><dc:type
           rdf:resource="http://purl.org/dc/dcmitype/StillImage" /><dc:title></dc:title></cc:Work></rdf:RDF></metadata><defs
     id="defs3555"><clipPath
       clipPathUnits="userSpaceOnUse"
       id="clipPath3565"><path
         d="M 0,42 240,42 240,0 0,0 0,42 Z"
         id="path3567"
         inkscape:connector-curvature="0" /></clipPath></defs><sodipodi:namedview
     pagecolor="#ffffff"
     bordercolor="#666666"
     borderopacity="1"
     objecttolerance="10"
     gridtolerance="10"
     guidetolerance="10"
     inkscape:pageopacity="0"
     inkscape:pageshadow="2"
     inkscape:window-width="1920"
     inkscape:window-height="1138"
     id="namedview3553"
     showgrid="false"
     inkscape:zoom="6.32"
     inkscape:cx="183.15616"
     inkscape:cy="19.983178"
     inkscape:window-x="-8"
     inkscape:window-y="-8"
     inkscape:window-maximized="1"
     inkscape:current-layer="g3561" /><g
     id="g3559"
     inkscape:groupmode="layer"
     inkscape:label="20151214_ Reisebuddy_Logo_Final"
     transform="matrix(1.25,0,0,-1.25,0,52.5)"><g
       id="g3561"><g
         id="g3563"
         clip-path="url(#clipPath3565)"
         style="fill-rule:nonzero;fill-opacity:1;fill:#ffffff"><g
           id="g3569"
           transform="translate(15.1729,33.1673)"
           style="fill-rule:nonzero;fill-opacity:1;fill:#ffffff"><path
             d="m 0,0 c 0,3.188 -1.529,4.783 -4.588,4.783 l -5.793,0 0,-9.681 5.871,0 c 1.555,0 2.696,0.447 3.421,1.34 C -0.363,-2.663 0,-1.478 0,0 m -10.381,-8.631 0,-9.487 -4.316,0 0,26.634 10.109,0 c 6.014,0 9.021,-2.827 9.021,-8.477 0,-3.784 -1.453,-6.351 -4.355,-7.698 l 4.394,-10.459 -4.744,0 -3.849,9.487 -6.26,0 z"
             style="fill:#ffffff;fill-opacity:1;fill-rule:nonzero;stroke:none"
             id="path3571"
             inkscape:connector-curvature="0" /></g><g
           id="g3573"
           transform="translate(26.4482,15.0491)"
           style="fill-rule:nonzero;fill-opacity:1;fill:#ffffff"><path
             d="m 0,0 0,26.634 16.797,0 0,-3.772 -12.481,0 0,-7.543 10.148,0 0,-3.732 -10.148,0 0,-7.776 12.481,0 L 16.797,0 0,0 Z"
             style="fill:#ffffff;fill-opacity:1;fill-rule:nonzero;stroke:none"
             id="path3575"
             inkscape:connector-curvature="0" /></g><path
           d="m 49.893,41.683 4.316,0 0,-26.634 -4.316,0 0,26.634 z"
           style="fill:#ffffff;fill-opacity:1;fill-rule:nonzero;stroke:none"
           id="path3577"
           inkscape:connector-curvature="0" /><g
           id="g3579"
           transform="translate(70.1113,38.3391)"
           style="fill-rule:nonzero;fill-opacity:1;fill:#ffffff"><path
             d="m 0,0 c -3.292,0 -4.937,-1.154 -4.937,-3.461 0,-1.192 0.388,-2.041 1.166,-2.547 0.777,-0.505 2.494,-1.127 5.151,-1.866 2.657,-0.738 4.53,-1.62 5.619,-2.644 1.088,-1.024 1.633,-2.637 1.633,-4.84 0,-2.8 -0.797,-4.893 -2.392,-6.28 -1.594,-1.386 -3.765,-2.08 -6.512,-2.08 -2.204,0 -4.64,0.26 -7.31,0.778 l -1.399,0.272 0.427,3.46 c 3.499,-0.466 6.169,-0.699 8.01,-0.699 3.213,0 4.821,1.425 4.821,4.276 0,1.114 -0.363,1.938 -1.089,2.47 -0.726,0.53 -2.359,1.114 -4.899,1.749 -2.54,0.635 -4.433,1.51 -5.677,2.625 -1.244,1.114 -1.866,2.877 -1.866,5.287 0,2.411 0.784,4.231 2.353,5.463 1.568,1.231 3.738,1.848 6.512,1.848 1.995,0 4.355,-0.234 7.076,-0.701 L 8.049,2.877 7.698,-0.622 C 4.069,-0.208 1.503,0 0,0"
             style="fill:#ffffff;fill-opacity:1;fill-rule:nonzero;stroke:none"
             id="path3581"
             inkscape:connector-curvature="0" /></g><g
           id="g3583"
           transform="translate(85.3525,15.0491)"
           style="fill-rule:nonzero;fill-opacity:1;fill:#ffffff"><path
             d="m 0,0 0,26.634 16.797,0 0,-3.772 -12.481,0 0,-7.543 10.148,0 0,-3.732 -10.148,0 0,-7.776 12.481,0 L 16.797,0 0,0 Z"
             style="fill:#ffffff;fill-opacity:1;fill-rule:nonzero;stroke:none"
             id="path3585"
             inkscape:connector-curvature="0" /></g><g
           id="g3587"
           transform="translate(118.9072,26.6741)"
           style="fill-rule:nonzero;fill-opacity:1;fill:#ffffff"><path
             d="m 0,0 -5.793,0 0,-7.893 5.871,0 c 1.425,0 2.494,0.298 3.207,0.895 0.713,0.596 1.069,1.619 1.069,3.071 0,1.451 -0.415,2.469 -1.244,3.053 C 2.28,-0.291 1.244,0 0,0 m -0.233,11.276 -5.56,0 0,-7.621 5.715,0 c 2.54,0 3.81,1.309 3.81,3.927 0,2.463 -1.322,3.694 -3.965,3.694 m -9.876,3.733 10.109,0 c 2.722,0 4.756,-0.552 6.104,-1.653 C 7.452,12.254 8.126,10.498 8.126,8.088 8.126,6.506 7.873,5.262 7.368,4.355 6.862,3.447 6.065,2.696 4.977,2.1 c 2.54,-0.986 3.81,-3.046 3.81,-6.182 0,-5.029 -2.825,-7.543 -8.475,-7.543 l -10.421,0 0,26.634 z"
             style="fill:#ffffff;fill-opacity:1;fill-rule:nonzero;stroke:none"
             id="path3589"
             inkscape:connector-curvature="0" /></g><g
           id="g3591"
           transform="translate(138.6582,23.5637)"
           style="fill-rule:nonzero;fill-opacity:1;fill:#ffffff"><path
             d="m 0,0 c 0,-3.447 1.813,-5.171 5.443,-5.171 3.628,0 5.444,1.724 5.444,5.171 l 0,18.119 4.354,0 0,-18.041 c 0,-3.137 -0.823,-5.424 -2.469,-6.862 -1.646,-1.439 -4.096,-2.158 -7.348,-2.158 -3.254,0 -5.696,0.719 -7.329,2.158 -1.633,1.438 -2.45,3.725 -2.45,6.862 l 0,18.041 4.355,0 L 0,0 Z"
             style="fill:#ffffff;fill-opacity:1;fill-rule:nonzero;stroke:none"
             id="path3593"
             inkscape:connector-curvature="0" /></g><g
           id="g3595"
           transform="translate(177.1504,28.8128)"
           style="fill-rule:nonzero;fill-opacity:1;fill:#ffffff"><path
             d="M 0,0 C 0,3.214 -0.402,5.534 -1.205,6.96 -2.01,8.385 -3.668,9.099 -6.183,9.099 l -4.898,0 0,-19.052 4.898,0 c 2.567,0 4.278,0.945 5.133,2.838 0.414,0.959 0.694,1.983 0.836,3.072 C -0.072,-2.955 0,-1.607 0,0 m -6.183,-13.764 -9.214,0 0,26.634 9.214,0 c 4.096,0 6.895,-1.037 8.399,-3.11 C 3.719,7.686 4.471,4.433 4.471,0 c 0,-2.255 -0.15,-4.167 -0.447,-5.734 -0.298,-1.57 -0.823,-2.989 -1.575,-4.258 -1.477,-2.515 -4.354,-3.772 -8.632,-3.772"
             style="fill:#ffffff;fill-opacity:1;fill-rule:nonzero;stroke:none"
             id="path3597"
             inkscape:connector-curvature="0" /></g><g
           id="g3599"
           transform="translate(204.0176,28.8128)"
           style="fill-rule:nonzero;fill-opacity:1;fill:#ffffff"><path
             d="M 0,0 C 0,3.214 -0.402,5.534 -1.205,6.96 -2.01,8.385 -3.668,9.099 -6.183,9.099 l -4.898,0 0,-19.052 4.898,0 c 2.567,0 4.278,0.945 5.133,2.838 0.414,0.959 0.694,1.983 0.836,3.072 C -0.072,-2.955 0,-1.607 0,0 m -6.183,-13.764 -9.214,0 0,26.634 9.214,0 c 4.096,0 6.895,-1.037 8.399,-3.11 C 3.719,7.686 4.471,4.433 4.471,0 c 0,-2.255 -0.15,-4.167 -0.447,-5.734 -0.298,-1.57 -0.823,-2.989 -1.575,-4.258 -1.477,-2.515 -4.354,-3.772 -8.632,-3.772"
             style="fill:#ffffff;fill-opacity:1;fill-rule:nonzero;stroke:none"
             id="path3601"
             inkscape:connector-curvature="0" /></g><g
           id="g3603"
           transform="translate(235.2361,11.6078)"
           style="fill-rule:nonzero;fill-opacity:1;fill:#ffffff"><path
             d="M 0,0 C -0.331,0 -0.667,0.055 -0.996,0.172 -2.553,0.721 -3.37,2.43 -2.82,3.988 l 1.704,4.825 C -0.567,10.37 1.143,11.188 2.7,10.637 4.257,10.087 5.073,8.378 4.524,6.821 L 2.82,1.996 C 2.386,0.767 1.233,0 0,0"
             style="fill:#ffffff;fill-opacity:1;fill-rule:nonzero;stroke:none"
             id="path3605"
             inkscape:connector-curvature="0" /></g><g
           id="g3607"
           transform="translate(228.1329,14.024)"
           style="fill-rule:nonzero;fill-opacity:1;fill:#ffffff"><path
             d="m 0,0 c -0.334,0 -0.674,0.056 -1.006,0.175 -1.555,0.556 -2.366,2.267 -1.81,3.823 l 2.181,6.105 c 0.555,1.556 2.27,2.365 3.822,1.81 C 4.743,11.357 5.553,9.646 4.997,8.09 L 2.816,1.985 C 2.38,0.762 1.228,0 0,0"
             style="fill:#ffffff;fill-opacity:1;fill-rule:nonzero;stroke:none"
             id="path3609"
             inkscape:connector-curvature="0" /></g><g
           id="g3611"
           transform="translate(227.6003,24.3551)"
           style="fill-rule:nonzero;fill-opacity:1;fill:#ffffff"><path
             d="m 0,0 -2.332,-6.53 c -0.32,-1.131 0.049,-2.31 0.893,-3.052 L 2.609,1.749 C 1.502,1.709 0.478,1.052 0,0"
             style="fill:#ffffff;fill-opacity:1;fill-rule:nonzero;stroke:none"
             id="path3613"
             inkscape:connector-curvature="0" /></g><g
           id="g3615"
           transform="translate(233.9104,39.6581)"
           style="fill-rule:nonzero;fill-opacity:1;fill:#ffffff"><path
             d="m 0,0 c -0.423,0.959 -1.194,1.697 -2.172,2.076 l 0,10e-4 C -4.188,2.856 -6.469,1.853 -7.251,-0.164 l -2.861,-7.411 -4.002,7.441 c -0.786,1.981 -3.027,2.979 -5.035,2.223 -0.981,-0.37 -1.759,-1.1 -2.191,-2.056 -0.431,-0.955 -0.466,-2.022 -0.095,-3.003 l 5.146,-9.007 -1.228,0 c -0.394,-10e-4 -0.753,-0.243 -0.923,-0.599 l -3.056,-6.363 c -0.124,-0.258 -0.194,-0.526 -0.24,-0.795 -0.005,-0.019 -0.02,-0.036 -0.024,-0.056 -0.009,-0.045 -10e-4,-0.102 -0.007,-0.15 -0.01,-0.107 -0.014,-0.212 -0.013,-0.318 0.001,-0.026 0.001,-0.051 0.004,-0.078 0.013,-0.383 0.099,-0.754 0.252,-1.102 0.693,-2.114 2.624,-5.11 3.808,-6.838 -0.294,-0.915 -0.26,-1.892 0.131,-2.778 0.423,-0.96 1.194,-1.697 2.171,-2.076 0.457,-0.177 0.935,-0.268 1.42,-0.268 1.965,0 3.451,0.805 3.981,2.174 l 1.742,4.878 c -0.604,0.407 -1.085,0.947 -1.424,1.569 l -2.068,-5.792 c -0.275,-0.707 -1.332,-0.959 -2.231,-0.959 -0.253,0 -0.503,0.047 -0.743,0.14 -0.512,0.199 -0.916,0.585 -1.138,1.088 -0.221,0.503 -0.234,1.061 -0.021,1.614 0,0 3.09,9.62 3.148,9.801 2.426,-0.495 4.977,2.189 5.058,3.806 0.087,1.724 -1.008,3.102 -2.711,3.102 l -3.917,0 -5.39,9.727 c -0.171,0.497 -0.146,1.032 0.072,1.513 0.226,0.501 0.634,0.884 1.146,1.077 1.063,0.399 2.251,-0.136 2.651,-1.197 l 5.238,-9.75 c 0.302,-0.563 1.126,-0.512 1.356,0.085 l 3.736,9.683 c 0.41,1.056 1.605,1.582 2.661,1.173 0.512,-0.199 0.916,-0.585 1.138,-1.088 0.221,-0.503 0.234,-1.061 0.027,-1.595 l -3.478,-9.736 c 0.587,0.034 1.229,0.028 1.566,0.028 l 0,0 c 0.14,0 0.277,-0.023 0.416,-0.036 l 3.246,9.089 C 0.447,-2.027 0.423,-0.96 0,0"
             style="fill:#ffffff;fill-opacity:1;fill-rule:nonzero;stroke:none"
             id="path3617"
             inkscape:connector-curvature="0" /></g><g
           id="g3619"
           transform="translate(218.0354,9.3582)"
           style="fill-rule:nonzero;fill-opacity:1;fill:#ffffff"><path
             d="m 0,0 c -0.221,0.502 -0.234,1.061 -0.02,1.614 l 3.026,9.425 C -0.887,9.272 -4.677,6.022 -0.869,0.518 -0.472,-0.057 -0.018,-0.359 0.411,-0.601 0.243,-0.428 0.101,-0.228 0,0"
             style="fill:#ffffff;fill-opacity:1;fill-rule:nonzero;stroke:none"
             id="path3621"
             inkscape:connector-curvature="0" /></g><g
           id="g3623"
           transform="translate(236.2314,10.2371)"
           style="fill-rule:nonzero;fill-opacity:1;fill:#ffffff"><path
             d="m 0,0 c -0.325,-0.074 -0.657,-0.125 -0.995,-0.125 -0.496,0 -1,0.083 -1.494,0.257 -1.467,0.518 -2.493,1.721 -2.852,3.122 -0.783,-0.61 -1.749,-0.963 -2.758,-0.963 -0.5,0 -1.01,0.084 -1.509,0.263 -1.078,0.385 -1.902,1.149 -2.411,2.08 l -2.065,-5.782 c -0.275,-0.707 -1.332,-0.959 -2.231,-0.959 -0.197,0 -0.391,0.037 -0.581,0.094 0.858,-0.669 1.188,-1.936 -0.259,-7.014 -0.135,-0.476 0.223,-0.954 0.718,-0.954 l 12.253,0 c 0.525,0 0.888,0.522 0.698,1.011 -0.204,0.525 -0.442,1.221 -0.629,2.003 -0.459,1.921 0.137,1.867 1.563,3.588 C -1.643,-2.282 -0.764,-1.142 0,0"
             style="fill:#ffffff;fill-opacity:1;fill-rule:nonzero;stroke:none"
             id="path3625"
             inkscape:connector-curvature="0" /></g></g></g></g></svg>
